<?xml version="1.0" encoding="UTF-8"?>
<svg width="205px" height="40px" viewBox="0 0 205 40" version="1.1" xmlns="http://www.w3.org/2000/svg" xmlns:xlink="http://www.w3.org/1999/xlink">
    <!-- Generator: Sketch 63.1 (92452) - https://sketch.com -->
    <title>Logo_Black</title>
    <desc>Created with Sketch.</desc>
    <defs>
        <circle id="path-1" cx="20" cy="20" r="20"></circle>
    </defs>
    <g id="Logos" stroke="none" stroke-width="1" fill="none" fill-rule="evenodd">
        <g id="Horizontal-Lock-up" transform="translate(-132.000000, -349.000000)">
            <g id="Logo_Black" transform="translate(132.000000, 349.000000)">
                <g id="Logo">
                    <path d="M52.868,30.084 C53.372,30.084 53.512,29.832 53.708,29.216 L55.304,24.512 L62.472,24.512 L64.096,29.216 C64.292,29.832 64.488,30.084 64.992,30.084 L65.2923265,30.0836735 C65.956,30.0817143 66.94,30.068 67.204,29.972 C67.428,29.86 67.54,29.664 67.54,29.44 C67.54,29.16 67.456,28.88 67.344,28.572 L61.716,12.136 C61.24,10.736 60.96,10.12 59.448,10.12 L58.748,10.12 C57.096,10.12 56.704,10.792 56.228,12.192 L50.488,28.628 C50.376,28.908 50.292,29.216 50.292,29.468 C50.292,29.664 50.348,29.888 50.628,29.972 C50.936,30.056 52.392,30.084 52.868,30.084 Z M61.716,21.74 L56.116,21.74 C57.852,16.476 58.44,14.74 58.944,12.976 L59.0218,13.233979 C59.5281023,14.912564 60.0646829,16.6795122 61.716,21.74 Z M74.288,30.14 C74.792,30.14 75.016,30 75.1,29.608 C75.156,29.356 75.212,28.768 75.212,28.348 C75.212,27.984 75.044,27.76 74.68,27.704 C73.868,27.564 73.308,27.312 73.084,26.92 C72.888,26.556 72.804,26.08 72.804,25.24 L72.804,9.784 C72.804,9.308 72.692,9.056 72.188,9.056 L70.368,9.056 C69.864,9.056 69.696,9.336 69.696,9.784 L69.696,25.632 C69.696,27.032 69.864,27.956 70.228,28.544 C70.844,29.524 71.908,30.14 74.288,30.14 Z M80,36.552 C80.504,36.552 80.784,36.384 80.784,35.824 L80.784,29.916 C81.4,30.224 82.604,30.364 83.472,30.364 C88.064,30.364 90.276,28.908 90.276,22.72 C90.276,17.232 88.484,15.636 84.396,15.636 C82.352,15.636 79.86,16.084 78.74,16.588 C78.32,16.784 77.956,17.036 77.816,17.4 C77.704,17.68 77.676,18.128 77.676,18.52 L77.676,35.824 C77.676,36.412 77.872,36.552 78.32,36.552 L80,36.552 Z M83.22,27.676 C82.492,27.676 81.624,27.564 81.204,27.368 C80.896,27.256 80.784,27.06 80.784,26.472 L80.784,19.892 C80.784,19.584 80.784,19.332 80.868,19.164 C80.924,18.996 81.092,18.856 81.316,18.744 C82.016,18.436 83.136,18.268 84.06,18.268 C86.552,18.268 87.14,19.584 87.14,22.748 C87.14,26.584 86.384,27.676 83.22,27.676 Z M97.976,30.364 C99.908,30.364 102.316,30 103.408,29.552 C103.856,29.384 104.108,29.16 104.304,28.908 C104.556,28.6 104.612,28.152 104.612,27.648 L104.612,20.396 C104.612,18.492 104.388,17.4 103.66,16.7 C102.876,15.916 101.616,15.608 99.208,15.608 C97.752,15.608 95.932,15.832 94.504,16.252 C94.168,16.364 93.944,16.56 93.944,16.98 C93.944,17.232 94.056,17.932 94.168,18.352 C94.252,18.632 94.42,18.8 94.7,18.8 C94.896,18.8 95.456,18.688 95.82,18.632 C96.8,18.436 97.864,18.324 98.76,18.324 C100.608,18.324 101.14,18.688 101.364,19.276 C101.504,19.64 101.532,20.256 101.532,20.788 L101.532,21.712 C100.804,21.628 99.684,21.6 98.816,21.6 C96.968,21.6 95.288,21.88 94.392,22.44 C93.3,23.14 92.824,24.176 92.824,25.856 C92.824,28.264 93.692,30.364 97.976,30.364 Z M98.368,27.928 C96.268,27.928 95.792,27.06 95.792,25.772 C95.792,24.988 95.988,24.568 96.408,24.316 C96.912,23.98 97.78,23.84 99.18,23.84 C99.964,23.84 100.944,23.896 101.532,23.952 L101.532,26.136 C101.532,26.5 101.504,26.836 101.42,27.088 C101.364,27.284 101.196,27.452 100.944,27.564 C100.44,27.76 99.572,27.928 98.368,27.928 Z M114.132,30.364 C115.476,30.364 116.96,30.224 118.192,29.776 C118.528,29.664 118.668,29.468 118.668,29.104 C118.668,28.824 118.5,28.152 118.388,27.732 C118.304,27.48 118.136,27.34 117.912,27.34 C117.688,27.34 117.324,27.424 117.1,27.48 C116.288,27.648 115.532,27.732 114.468,27.732 C111.752,27.732 111.08,26.136 111.08,22.972 C111.08,20.116 111.584,18.296 114.692,18.296 C115.56,18.296 116.26,18.38 116.82,18.492 C117.072,18.52 117.436,18.604 117.66,18.604 C117.912,18.604 118.08,18.464 118.164,18.184 C118.276,17.764 118.444,16.868 118.444,16.588 C118.444,16.308 118.304,16.084 117.968,15.972 C117.1,15.72 115.896,15.608 114.664,15.608 C109.708,15.608 107.944,18.016 107.944,23.224 C107.944,28.684 110.184,30.364 114.132,30.364 Z M125.528,30.364 C127.46,30.364 129.868,30 130.96,29.552 C131.408,29.384 131.66,29.16 131.856,28.908 C132.108,28.6 132.164,28.152 132.164,27.648 L132.164,20.396 C132.164,18.492 131.94,17.4 131.212,16.7 C130.428,15.916 129.168,15.608 126.76,15.608 C125.304,15.608 123.484,15.832 122.056,16.252 C121.72,16.364 121.496,16.56 121.496,16.98 C121.496,17.232 121.608,17.932 121.72,18.352 C121.804,18.632 121.972,18.8 122.252,18.8 C122.448,18.8 123.008,18.688 123.372,18.632 C124.352,18.436 125.416,18.324 126.312,18.324 C128.16,18.324 128.692,18.688 128.916,19.276 C129.056,19.64 129.084,20.256 129.084,20.788 L129.084,21.712 C128.356,21.628 127.236,21.6 126.368,21.6 C124.52,21.6 122.84,21.88 121.944,22.44 C120.852,23.14 120.376,24.176 120.376,25.856 C120.376,28.264 121.244,30.364 125.528,30.364 Z M125.92,27.928 C123.82,27.928 123.344,27.06 123.344,25.772 C123.344,24.988 123.54,24.568 123.96,24.316 C124.464,23.98 125.332,23.84 126.732,23.84 C127.516,23.84 128.496,23.896 129.084,23.952 L129.084,26.136 C129.084,26.5 129.056,26.836 128.972,27.088 C128.916,27.284 128.748,27.452 128.496,27.564 C127.992,27.76 127.124,27.928 125.92,27.928 Z M141.88,30 C143.392,30 145.856,29.86 147.284,29.328 C151.204,27.872 152.324,24.652 152.324,19.892 C152.324,14.824 150.756,11.744 147.368,10.764 C146.136,10.4 144.484,10.232 142.16,10.232 L139.528,10.232 C137.568,10.232 136.7,11.156 136.7,13.144 L136.7,27.2 C136.7,29.188 137.54,30 139.472,30 L141.88,30 Z M142.776,27.144 L140.956,27.144 C140.2,27.144 139.92,26.808 139.92,26.052 L139.92,14.124 C139.92,13.368 140.228,13.06 140.844,13.06 L142.636,13.06 C144.204,13.06 145.436,13.228 146.276,13.62 C148.404,14.572 148.992,16.644 148.992,19.92 C148.992,23.252 148.404,25.52 146.108,26.584 C145.324,26.948 144.176,27.144 142.776,27.144 Z M163.496,30.364 C169.236,30.364 171.924,28.18 171.924,19.976 C171.924,11.352 169.236,9.868 163.72,9.868 C158.904,9.868 155.292,11.632 155.292,20.004 C155.292,28.236 157.952,30.364 163.496,30.364 Z M163.552,27.62 C160.304,27.62 158.596,26.5 158.596,20.004 C158.596,13.9 160.388,12.612 163.608,12.612 C167.22,12.612 168.592,13.732 168.592,20.032 C168.592,26.612 166.716,27.62 163.552,27.62 Z M182.648,30.364 C184.804,30.364 186.68,30.14 188.444,29.524 C188.92,29.356 189.088,29.104 189.088,28.824 C189.088,28.432 188.948,27.816 188.78,27.34 C188.668,27.032 188.472,26.948 188.276,26.948 C188.08,26.948 187.744,27.004 187.352,27.116 C186.232,27.396 185.224,27.62 183.376,27.62 C179.148,27.62 178.196,24.904 178.196,20.004 C178.196,15.16 179.12,12.612 183.572,12.612 C185.084,12.612 186.12,12.724 186.904,12.892 C187.296,12.976 187.604,13.032 187.828,13.032 C188.052,13.032 188.276,12.92 188.36,12.696 C188.556,12.164 188.696,11.296 188.696,10.988 C188.696,10.652 188.472,10.4 187.996,10.288 C186.876,10.008 185.14,9.868 183.348,9.868 C176.936,9.868 174.892,13.06 174.892,20.424 C174.892,28.068 177.748,30.364 182.648,30.364 Z M197.404,30.364 C202.864,30.364 204.628,28.04 204.628,24.372 C204.628,21.096 203.48,19.92 199.98,18.912 L197.516,18.268 C195.024,17.596 194.688,16.616 194.688,15.44 C194.688,13.844 195.332,12.64 198.188,12.64 C199.224,12.64 200.624,12.752 202.136,13.032 C202.388,13.088 202.78,13.172 203.032,13.172 C203.34,13.172 203.564,12.976 203.648,12.612 C203.816,12.052 203.928,11.492 203.928,11.212 C203.928,10.792 203.676,10.568 203.312,10.456 C201.94,10.008 199.924,9.868 198.412,9.868 C193.232,9.868 191.384,12.164 191.384,15.748 C191.384,18.772 192.84,20.48 195.724,21.236 L198.244,21.88 C200.929375,22.58525 201.302344,23.3956094 201.323032,24.6420084 L201.324,24.764 C201.324,26.108 200.876,27.62 197.46,27.62 C195.836,27.62 194.436,27.396 193.064,26.948 C192.812,26.864 192.364,26.724 192.14,26.724 C191.748,26.724 191.496,26.92 191.356,27.368 C191.216,27.816 191.048,28.46 191.048,28.824 C191.048,29.216 191.272,29.412 191.692,29.552 C193.372,30.112 195.472,30.364 197.404,30.364 Z" id="AlpacaDOCS" fill="#303030" fill-rule="nonzero"></path>
                    <g id="Group-2">
                        <g id="Combined-Shape-Copy-6">
                            <g id="Combined-Shape">
                                <mask id="mask-2" fill="white">
                                    <use xlink:href="#path-1"></use>
                                </mask>
                                <use id="Mask" fill="#FCD700" xlink:href="#path-1"></use>
                                <path d="M20.4766012,6.05633803 C21.377494,6.35611754 21.9561478,6.69786445 22.2125627,7.08157877 C22.3060314,7.22145079 22.3894965,7.36977393 22.4640188,7.52264225 C23.0249463,8.67327824 23.079218,10.0814235 23.079218,10.0814235 C24.4811563,10.9974167 26.029309,12.473575 26.4025859,15.5174908 C26.4025859,17.4864838 27.0422535,40.7042254 27.0422535,40.7042254 L15.8411785,40.7042254 L15.8355833,19.3329548 C10.8333297,19.7521978 10.9864248,15.0471636 10.9864248,15.0471636 C12.2112168,14.0902849 13.2450388,12.9582112 14.0878908,11.6509426 C15.276137,9.80796567 18.4898052,9.19361473 18.4898052,9.19361473 L17.7243296,6.84021682 C19.3584909,6.47381954 20.4766012,9.19361473 20.4766012,9.19361473 L20.4766012,6.05633803 Z" fill="#FFFFFF" fill-rule="nonzero" mask="url(#mask-2)"></path>
                            </g>
                            <ellipse id="Oval" fill="#D8D8D8" cx="20.4929577" cy="7.67605634" rx="1" ry="1.61971831"></ellipse>
                            <path d="M11.0440278,15.2375256 C11.1218144,15.2375256 11.2676056,15.2806156 11.2676056,15.0704225 C11.2676056,14.8602295 11.279935,14.8746083 11.2047179,14.8716972 C11.0375719,14.9942833 10.9859155,14.9781176 10.9859155,15.0704225 C10.9859155,15.1627275 10.9662413,15.2375256 11.0440278,15.2375256 Z" id="Oval" fill="#D8D8D8"></path>
                            <path d="M16.8539133,8.02433229 C16.8539133,8.21879876 17.4214396,8.37644497 18.1215189,8.37644497 C18.8215981,8.37644497 19.3891245,8.21879876 19.3891245,8.02433229 C19.3891245,7.82986583 18.8215981,7.67221962 18.1215189,7.67221962 C17.4214396,7.67221962 16.8539133,7.82986583 16.8539133,8.02433229 Z" id="Oval" fill="#D8D8D8" transform="translate(18.121519, 8.024332) rotate(71.000000) translate(-18.121519, -8.024332) "></path>
                            <path d="M15.915493,14.1323944 L17.128169,14.1323944 C17.7126761,14.1323944 17.8802817,13.3802817 17.8802817,13.3802817 L16.584507,13.3802817 C15.9985915,13.3802817 15.915493,14.1323944 15.915493,14.1323944 Z" id="Path" fill="#D8D8D8" fill-rule="nonzero"></path>
                        </g>
                    </g>
                </g>
            </g>
        </g>
    </g>
</svg>