<svg id="Layer_1" data-name="Layer 1" xmlns="http://www.w3.org/2000/svg" viewBox="0 0 823.44 233.95"><defs><style>.cls-1{fill:#303030;}</style></defs><title>Alpaca_Logo</title><path class="cls-1" d="M343,152.78H299.3l-5.89,18.51H264L304,53.5h34.33l40,117.79H348.94ZM335,127.54l-13.8-43.25-13.8,43.25Z"/><path class="cls-1" d="M387.64,48.45h25.24V171.29H387.64Z"/><path class="cls-1" d="M521.92,129.22c0,25.07-18.17,44.42-40.22,44.42-11.27,0-19.52-3.87-25.07-10.27v41.56H431.39V87.15h25.24v7.91c5.55-6.39,13.8-10.27,25.07-10.27C503.74,84.8,521.92,104.15,521.92,129.22Zm-25.24,0c0-12.62-8.41-20.53-20-20.53s-20,7.91-20,20.53,8.41,20.53,20,20.53S496.68,141.84,496.68,129.22Z"/><path class="cls-1" d="M622.54,87.15v84.14H597.3v-7.91c-5.55,6.39-13.8,10.27-25.07,10.27-22,0-40.22-19.35-40.22-44.42S550.18,84.8,572.23,84.8c11.27,0,19.52,3.87,25.07,10.27V87.15ZM597.3,129.22c0-12.62-8.41-20.53-20-20.53s-20,7.91-20,20.53,8.41,20.53,20,20.53S597.3,141.84,597.3,129.22Z"/><path class="cls-1" d="M636.84,129.22c0-25.07,19-44.42,44.59-44.42,16.32,0,30.79,8.58,38,21.54l-22,12.79c-2.86-5.89-8.92-9.42-16.32-9.42-10.94,0-19,7.91-19,19.52s8.08,19.52,19,19.52c7.4,0,13.63-3.53,16.32-9.42l22,12.62c-7.24,13.13-21.54,21.71-38,21.71C655.85,173.65,636.84,154.3,636.84,129.22Z"/><path class="cls-1" d="M814.19,87.15v84.14H789v-7.91c-5.55,6.39-13.8,10.27-25.07,10.27-22,0-40.22-19.35-40.22-44.42S741.84,84.8,763.88,84.8c11.27,0,19.52,3.87,25.07,10.27V87.15ZM789,129.22c0-12.62-8.41-20.53-20-20.53s-20,7.91-20,20.53,8.41,20.53,20,20.53S789,141.84,789,129.22Z"/><path class="cls-1" d="M234.13,117.06A117.06,117.06,0,1,0,110.65,234c-8.92-6-9.91-20-9.91-28.31V111.72C71.66,114.1,72.55,87.39,72.55,87.39l17.51-6.82a20.64,20.64,0,0,1,.52-12.46c4.23-11.8,25.59-13.95,25.59-13.95L111.72,40.8c9.5-2.08,16,8,16,8V36.35c14.24.3,15.13,22.85,15.13,22.85C151,64.4,160,72.78,162.17,90.06c1.3,10.41,10.68,92,15.13,103.27,2.81,7.12,10.35,11,15.53,13A116.8,116.8,0,0,0,234.13,117.06Z"/><path d="M97.48,86.2h8.61c4.15,0,5.34-5.34,5.34-5.34h-9.2C98.07,80.86,97.48,86.2,97.48,86.2Z"/></svg>