<?xml version="1.0" encoding="UTF-8"?>
<svg width="189px" height="40px" viewBox="0 0 189 40" version="1.1" xmlns="http://www.w3.org/2000/svg" xmlns:xlink="http://www.w3.org/1999/xlink">
    <!-- Generator: Sketch 63.1 (92452) - https://sketch.com -->
    <title>Logo_Black</title>
    <desc>Created with Sketch.</desc>
    <defs>
        <circle id="path-1" cx="20" cy="20" r="20"></circle>
    </defs>
    <g id="Logos" stroke="none" stroke-width="1" fill="none" fill-rule="evenodd">
        <g id="Horizontal-Lock-up" transform="translate(-145.000000, -349.000000)">
            <g id="Logo_Black" transform="translate(145.000000, 349.000000)">
                <g id="Logo">
                    <g transform="translate(50.000000, 4.000000)" fill="#303030" fill-rule="nonzero" id="AlpacaDOCS">
                        <path d="M3.152,24.072 C3.584,24.072 3.704,23.856 3.872,23.328 L5.24,19.296 L11.384,19.296 L12.776,23.328 C12.944,23.856 13.112,24.072 13.544,24.072 L13.8234356,24.0716504 C14.3918107,24.0697278 15.2166154,24.0572308 15.44,23.976 C15.632,23.88 15.728,23.712 15.728,23.52 C15.728,23.28 15.656,23.04 15.56,22.776 L10.736,8.688 C10.328,7.488 10.088,6.96 8.792,6.96 L8.192,6.96 C6.776,6.96 6.44,7.536 6.032,8.736 L1.112,22.824 C1.016,23.064 0.944,23.328 0.944,23.544 C0.944,23.712 0.992,23.904 1.232,23.976 C1.496,24.048 2.744,24.072 3.152,24.072 Z M10.736,16.92 L5.936,16.92 C7.424,12.408 7.928,10.92 8.36,9.408 C8.816,10.92 9.248,12.36 10.736,16.92 Z M21.512,24.12 C21.944,24.12 22.136,24 22.208,23.664 C22.256,23.448 22.304,22.944 22.304,22.584 C22.304,22.272 22.16,22.08 21.848,22.032 C21.152,21.912 20.672,21.696 20.48,21.36 C20.312,21.048 20.24,20.64 20.24,19.92 L20.24,6.672 C20.24,6.264 20.144,6.048 19.712,6.048 L18.152,6.048 C17.72,6.048 17.576,6.288 17.576,6.672 L17.576,20.256 C17.576,21.456 17.72,22.248 18.032,22.752 C18.56,23.592 19.472,24.12 21.512,24.12 Z M26.408,29.616 C26.84,29.616 27.08,29.472 27.08,28.992 L27.08,23.928 C27.608,24.192 28.64,24.312 29.384,24.312 C33.32,24.312 35.216,23.064 35.216,17.76 C35.216,13.056 33.68,11.688 30.176,11.688 C28.424,11.688 26.288,12.072 25.328,12.504 C24.968,12.672 24.656,12.888 24.536,13.2 C24.44,13.44 24.416,13.824 24.416,14.16 L24.416,28.992 C24.416,29.496 24.584,29.616 24.968,29.616 L26.408,29.616 Z M29.168,22.008 C28.544,22.008 27.8,21.912 27.44,21.744 C27.176,21.648 27.08,21.48 27.08,20.976 L27.08,15.336 C27.08,15.072 27.08,14.856 27.152,14.712 C27.2,14.568 27.344,14.448 27.536,14.352 C28.136,14.088 29.096,13.944 29.888,13.944 C32.024,13.944 32.528,15.072 32.528,17.784 C32.528,21.072 31.88,22.008 29.168,22.008 Z M41.816,24.312 C43.472,24.312 45.536,24 46.472,23.616 C46.856,23.472 47.072,23.28 47.24,23.064 C47.456,22.8 47.504,22.416 47.504,21.984 L47.504,15.768 C47.504,14.136 47.312,13.2 46.688,12.6 C46.016,11.928 44.936,11.664 42.872,11.664 C41.624,11.664 40.064,11.856 38.84,12.216 C38.552,12.312 38.36,12.48 38.36,12.84 C38.36,13.056 38.456,13.656 38.552,14.016 C38.624,14.256 38.768,14.4 39.008,14.4 C39.176,14.4 39.656,14.304 39.968,14.256 C40.808,14.088 41.72,13.992 42.488,13.992 C44.072,13.992 44.528,14.304 44.72,14.808 C44.84,15.12 44.864,15.648 44.864,16.104 L44.864,16.896 C44.24,16.824 43.28,16.8 42.536,16.8 C40.952,16.8 39.512,17.04 38.744,17.52 C37.808,18.12 37.4,19.008 37.4,20.448 C37.4,22.512 38.144,24.312 41.816,24.312 Z M42.152,22.224 C40.352,22.224 39.944,21.48 39.944,20.376 C39.944,19.704 40.112,19.344 40.472,19.128 C40.904,18.84 41.648,18.72 42.848,18.72 C43.52,18.72 44.36,18.768 44.864,18.816 L44.864,20.688 C44.864,21 44.84,21.288 44.768,21.504 C44.72,21.672 44.576,21.816 44.36,21.912 C43.928,22.08 43.184,22.224 42.152,22.224 Z M55.664,24.312 C56.816,24.312 58.088,24.192 59.144,23.808 C59.432,23.712 59.552,23.544 59.552,23.232 C59.552,22.992 59.408,22.416 59.312,22.056 C59.24,21.84 59.096,21.72 58.904,21.72 C58.712,21.72 58.4,21.792 58.208,21.84 C57.512,21.984 56.864,22.056 55.952,22.056 C53.624,22.056 53.048,20.688 53.048,17.976 C53.048,15.528 53.48,13.968 56.144,13.968 C56.888,13.968 57.488,14.04 57.968,14.136 C58.184,14.16 58.496,14.232 58.688,14.232 C58.904,14.232 59.048,14.112 59.12,13.872 C59.216,13.512 59.36,12.744 59.36,12.504 C59.36,12.264 59.24,12.072 58.952,11.976 C58.208,11.76 57.176,11.664 56.12,11.664 C51.872,11.664 50.36,13.728 50.36,18.192 C50.36,22.872 52.28,24.312 55.664,24.312 Z M65.432,24.312 C67.088,24.312 69.152,24 70.088,23.616 C70.472,23.472 70.688,23.28 70.856,23.064 C71.072,22.8 71.12,22.416 71.12,21.984 L71.12,15.768 C71.12,14.136 70.928,13.2 70.304,12.6 C69.632,11.928 68.552,11.664 66.488,11.664 C65.24,11.664 63.68,11.856 62.456,12.216 C62.168,12.312 61.976,12.48 61.976,12.84 C61.976,13.056 62.072,13.656 62.168,14.016 C62.24,14.256 62.384,14.4 62.624,14.4 C62.792,14.4 63.272,14.304 63.584,14.256 C64.424,14.088 65.336,13.992 66.104,13.992 C67.688,13.992 68.144,14.304 68.336,14.808 C68.456,15.12 68.48,15.648 68.48,16.104 L68.48,16.896 C67.856,16.824 66.896,16.8 66.152,16.8 C64.568,16.8 63.128,17.04 62.36,17.52 C61.424,18.12 61.016,19.008 61.016,20.448 C61.016,22.512 61.76,24.312 65.432,24.312 Z M65.768,22.224 C63.968,22.224 63.56,21.48 63.56,20.376 C63.56,19.704 63.728,19.344 64.088,19.128 C64.52,18.84 65.264,18.72 66.464,18.72 C67.136,18.72 67.976,18.768 68.48,18.816 L68.48,20.688 C68.48,21 68.456,21.288 68.384,21.504 C68.336,21.672 68.192,21.816 67.976,21.912 C67.544,22.08 66.8,22.224 65.768,22.224 Z M84.824,24 C86.12,24 88.352,23.88 89.576,23.424 C92.912,22.176 93.872,19.512 93.872,15.336 C93.872,10.968 92.552,8.352 89.648,7.512 C88.592,7.2 87.104,7.056 85.112,7.056 L82.736,7.056 C81.032,7.056 80.192,7.896 80.192,9.672 L80.192,21.456 C80.192,23.256 80.984,24 82.688,24 L84.824,24 Z M85.808,21.12 L84.392,21.12 C83.744,21.12 83.504,20.832 83.504,20.184 L83.504,10.8 C83.504,10.176 83.768,9.912 84.272,9.912 L85.64,9.912 C86.768,9.912 87.728,10.056 88.352,10.344 C89.984,11.064 90.44,12.6 90.44,15.36 C90.44,18.144 90.008,19.848 88.256,20.664 C87.68,20.952 86.816,21.12 85.808,21.12 Z M103.376,24.312 C108.392,24.312 110.768,22.44 110.768,15.408 C110.768,8.016 108.392,6.744 103.568,6.744 C99.344,6.744 96.176,8.256 96.176,15.432 C96.176,22.488 98.504,24.312 103.376,24.312 Z M103.424,21.552 C100.928,21.552 99.584,20.64 99.584,15.432 C99.584,10.536 100.976,9.504 103.472,9.504 C106.28,9.504 107.312,10.392 107.312,15.456 C107.312,20.736 105.872,21.552 103.424,21.552 Z M119.768,24.312 C121.712,24.312 123.344,24.12 124.832,23.592 C125.264,23.424 125.408,23.208 125.408,22.944 C125.408,22.512 125.24,21.888 125.048,21.36 C124.952,21.096 124.76,21.024 124.592,21.024 C124.424,21.024 124.136,21.072 123.8,21.168 C122.888,21.384 122.072,21.552 120.632,21.552 C117.44,21.552 116.48,19.704 116.48,15.432 C116.48,11.208 117.416,9.504 120.776,9.504 C121.904,9.504 122.744,9.576 123.392,9.696 C123.728,9.768 124.016,9.816 124.208,9.816 C124.4,9.816 124.616,9.72 124.688,9.504 C124.904,8.976 125.048,8.04 125.048,7.728 C125.048,7.44 124.856,7.2 124.448,7.104 C123.464,6.84 121.952,6.744 120.416,6.744 C114.896,6.744 113.072,9.456 113.072,15.792 C113.072,22.344 115.568,24.312 119.768,24.312 Z M132.536,24.312 C137.36,24.312 138.896,22.248 138.896,19.032 C138.896,16.104 137.936,15.096 134.84,14.232 L132.728,13.704 C130.88,13.248 130.64,12.432 130.64,11.592 C130.64,10.392 131.144,9.528 133.184,9.528 C134.048,9.528 135.296,9.6 136.616,9.84 C136.832,9.888 137.216,9.96 137.456,9.96 C137.768,9.96 137.984,9.744 138.056,9.408 C138.2,8.88 138.344,8.256 138.344,7.992 C138.344,7.56 138.08,7.344 137.768,7.248 C136.568,6.864 134.672,6.744 133.4,6.744 C128.792,6.744 127.232,8.808 127.232,11.904 C127.232,14.712 128.528,16.128 131.12,16.752 L133.208,17.256 C135.2,17.76 135.464,18.36 135.464,19.464 C135.464,20.544 135.08,21.552 132.608,21.552 C131.264,21.552 130.04,21.384 128.864,21.024 C128.624,20.952 128.192,20.832 127.976,20.832 C127.568,20.832 127.328,21.048 127.208,21.456 C127.088,21.912 126.896,22.512 126.896,22.872 C126.896,23.28 127.136,23.496 127.496,23.616 C128.96,24.096 130.856,24.312 132.536,24.312 Z"></path>
                    </g>
                    <g id="Group-2">
                        <g id="Combined-Shape-Copy-6">
                            <g id="Combined-Shape">
                                <mask id="mask-2" fill="white">
                                    <use xlink:href="#path-1"></use>
                                </mask>
                                <use id="Mask" fill="#FCD700" xlink:href="#path-1"></use>
                                <path d="M20.4766012,6.05633803 C21.377494,6.35611754 21.9561478,6.69786445 22.2125627,7.08157877 C22.3060314,7.22145079 22.3894965,7.36977393 22.4640188,7.52264225 C23.0249463,8.67327824 23.079218,10.0814235 23.079218,10.0814235 C24.4811563,10.9974167 26.029309,12.473575 26.4025859,15.5174908 C26.4025859,17.4864838 27.0422535,40.7042254 27.0422535,40.7042254 L15.8411785,40.7042254 L15.8355833,19.3329548 C10.8333297,19.7521978 10.9864248,15.0471636 10.9864248,15.0471636 C12.2112168,14.0902849 13.2450388,12.9582112 14.0878908,11.6509426 C15.276137,9.80796567 18.4898052,9.19361473 18.4898052,9.19361473 L17.7243296,6.84021682 C19.3584909,6.47381954 20.4766012,9.19361473 20.4766012,9.19361473 L20.4766012,6.05633803 Z" fill="#FFFFFF" fill-rule="nonzero" mask="url(#mask-2)"></path>
                            </g>
                            <ellipse id="Oval" fill="#D8D8D8" cx="20.4929577" cy="7.67605634" rx="1" ry="1.61971831"></ellipse>
                            <path d="M11.0440278,15.2375256 C11.1218144,15.2375256 11.2676056,15.2806156 11.2676056,15.0704225 C11.2676056,14.8602295 11.279935,14.8746083 11.2047179,14.8716972 C11.0375719,14.9942833 10.9859155,14.9781176 10.9859155,15.0704225 C10.9859155,15.1627275 10.9662413,15.2375256 11.0440278,15.2375256 Z" id="Oval" fill="#D8D8D8"></path>
                            <path d="M16.8539133,8.02433229 C16.8539133,8.21879876 17.4214396,8.37644497 18.1215189,8.37644497 C18.8215981,8.37644497 19.3891245,8.21879876 19.3891245,8.02433229 C19.3891245,7.82986583 18.8215981,7.67221962 18.1215189,7.67221962 C17.4214396,7.67221962 16.8539133,7.82986583 16.8539133,8.02433229 Z" id="Oval" fill="#D8D8D8" transform="translate(18.121519, 8.024332) rotate(71.000000) translate(-18.121519, -8.024332) "></path>
                            <path d="M15.915493,14.1323944 L17.128169,14.1323944 C17.7126761,14.1323944 17.8802817,13.3802817 17.8802817,13.3802817 L16.584507,13.3802817 C15.9985915,13.3802817 15.915493,14.1323944 15.915493,14.1323944 Z" id="Path" fill="#D8D8D8" fill-rule="nonzero"></path>
                        </g>
                    </g>
                </g>
            </g>
        </g>
    </g>
</svg>