<?xml version="1.0" encoding="UTF-8" standalone="no"?>
<!DOCTYPE svg PUBLIC "-//W3C//DTD SVG 1.1//EN" "http://www.w3.org/Graphics/SVG/1.1/DTD/svg11.dtd">
<svg width="100%" height="100%" viewBox="0 0 824 234" version="1.1" xmlns="http://www.w3.org/2000/svg" xmlns:xlink="http://www.w3.org/1999/xlink" xml:space="preserve" xmlns:serif="http://www.serif.com/" style="fill-rule:evenodd;clip-rule:evenodd;stroke-linejoin:round;stroke-miterlimit:1.41421;">
    <path d="M343,152.8L299.3,152.8L293.4,171.3L264,171.3L304,53.5L338.3,53.5L378.3,171.3L348.9,171.3L343,152.8ZM335,127.5L321.2,84.3L307.4,127.5L335,127.5Z" style="fill:white;fill-rule:nonzero;"/>
    <rect x="387.6" y="48.5" width="25.2" height="122.8" style="fill:white;fill-rule:nonzero;"/>
    <path d="M521.9,129.2C521.9,154.3 503.7,173.6 481.7,173.6C470.4,173.6 462.2,169.7 456.6,163.3L456.6,204.9L431.4,204.9L431.4,87.2L456.6,87.2L456.6,95.1C462.1,88.7 470.4,84.8 481.7,84.8C503.7,84.8 521.9,104.2 521.9,129.2ZM496.7,129.2C496.7,116.6 488.3,108.7 476.7,108.7C465.1,108.7 456.7,116.6 456.7,129.2C456.7,141.8 465.1,149.7 476.7,149.7C488.3,149.7 496.7,141.8 496.7,129.2Z" style="fill:white;fill-rule:nonzero;"/>
    <path d="M622.5,87.2L622.5,171.3L597.3,171.3L597.3,163.4C591.8,169.8 583.5,173.7 572.2,173.7C550.2,173.7 532,154.3 532,129.3C532,104.3 550.2,84.9 572.2,84.9C583.5,84.9 591.7,88.8 597.3,95.2L597.3,87.3L622.5,87.3L622.5,87.2ZM597.3,129.2C597.3,116.6 588.9,108.7 577.3,108.7C565.7,108.7 557.3,116.6 557.3,129.2C557.3,141.8 565.7,149.7 577.3,149.7C588.9,149.7 597.3,141.8 597.3,129.2Z" style="fill:white;fill-rule:nonzero;"/>
    <path d="M636.8,129.2C636.8,104.1 655.8,84.8 681.4,84.8C697.7,84.8 712.2,93.4 719.4,106.3L697.4,119.1C694.5,113.2 688.5,109.7 681.1,109.7C670.2,109.7 662.1,117.6 662.1,129.2C662.1,140.8 670.2,148.7 681.1,148.7C688.5,148.7 694.7,145.2 697.4,139.3L719.4,151.9C712.2,165 697.9,173.6 681.4,173.6C655.8,173.6 636.8,154.3 636.8,129.2Z" style="fill:white;fill-rule:nonzero;"/>
    <path d="M814.2,87.2L814.2,171.3L789,171.3L789,163.4C783.5,169.8 775.2,173.7 763.9,173.7C741.9,173.7 723.7,154.3 723.7,129.3C723.7,104.3 741.8,84.9 763.9,84.9C775.2,84.9 783.4,88.8 789,95.2L789,87.3L814.2,87.3L814.2,87.2ZM789,129.2C789,116.6 780.6,108.7 769,108.7C757.4,108.7 749,116.6 749,129.2C749,141.8 757.4,149.7 769,149.7C780.6,149.7 789,141.8 789,129.2Z" style="fill:white;fill-rule:nonzero;"/>
    <path d="M234.1,117.1C234.1,52.4 181.6,0.1 117,0.1C52.4,0.1 0,52.5 0,117.2C0,179.3 48.6,230.6 110.7,234C101.8,228 100.8,214 100.8,205.7L100.8,111.7C71.7,114.1 72.6,87.4 72.6,87.4L90.1,80.6C89,76.5 89.2,72.1 90.6,68.1C94.8,56.3 116.2,54.1 116.2,54.1L111.8,40.7C121.3,38.6 127.8,48.7 127.8,48.7L127.8,36.3C142,36.6 142.9,59.1 142.9,59.1C151,64.3 160,72.7 162.2,90C163.5,100.4 172.9,182 177.3,193.3C180.1,200.4 187.7,204.3 192.8,206.3C219.1,184.1 234.2,151.4 234.1,117.1Z" style="fill:white;fill-rule:nonzero;"/>
    <path d="M97.5,86.2L106.1,86.2C110.3,86.2 111.4,80.9 111.4,80.9L102.2,80.9C98.1,80.9 97.5,86.2 97.5,86.2Z" style="fill:white;fill-rule:nonzero;"/>
</svg>
